<?xml version="1.0" standalone="no"?><!DOCTYPE svg PUBLIC "-//W3C//DTD SVG 1.1//EN" "http://www.w3.org/Graphics/SVG/1.1/DTD/svg11.dtd"><svg t="1723895753599" class="icon" viewBox="0 0 1024 1024" version="1.1" xmlns="http://www.w3.org/2000/svg" p-id="7125" width="48" height="48" xmlns:xlink="http://www.w3.org/1999/xlink"><path d="M512 0a512 512 0 1 0 512 512A512.606923 512.606923 0 0 0 512 0z m430.793741 512A430.793741 430.793741 0 1 1 512 81.327643a431.279279 431.279279 0 0 1 430.793741 430.672357z" p-id="7126"></path><path d="M771.277383 471.336178h-218.492177v-218.492176a40.663822 40.663822 0 0 0-81.327643 0v218.492176h-218.492177a40.663822 40.663822 0 0 0 0 81.327644h218.492177v218.492176a40.663822 40.663822 0 0 0 81.327643 0v-218.492176h218.492177a40.663822 40.663822 0 0 0 0-81.327644z" p-id="7127"></path></svg>