<?xml version="1.0" standalone="no"?><!DOCTYPE svg PUBLIC "-//W3C//DTD SVG 1.1//EN" "http://www.w3.org/Graphics/SVG/1.1/DTD/svg11.dtd"><svg t="1723953490482" class="icon" viewBox="0 0 1024 1024" version="1.1" xmlns="http://www.w3.org/2000/svg" p-id="10460" width="48" height="48" xmlns:xlink="http://www.w3.org/1999/xlink"><path d="M512 987.733333c-17.066667 0-32-14.933333-32-32V136.533333c0-17.066667 14.933333-32 32-32s32 14.933333 32 32v819.2c0 17.066667-14.933333 32-32 32z" p-id="10461"></path><path d="M825.6 405.333333c-8.533333 0-17.066667-4.266667-23.466667-8.533333L512 104.533333 221.866667 394.666667c-12.8 12.8-34.133333 10.666667-44.8-2.133334s-10.666667-32 0-42.666666l298.666666-298.666667c21.333333-21.333333 55.466667-21.333333 74.666667 0l298.666667 298.666667c12.8 12.8 12.8 32 0 44.8-6.4 6.4-14.933333 10.666667-23.466667 10.666666z" p-id="10462"></path></svg>