<?xml version="1.0" standalone="no"?><!DOCTYPE svg PUBLIC "-//W3C//DTD SVG 1.1//EN" "http://www.w3.org/Graphics/SVG/1.1/DTD/svg11.dtd"><svg t="1723953470745" class="icon" viewBox="0 0 1024 1024" version="1.1" xmlns="http://www.w3.org/2000/svg" p-id="9852" width="48" height="48" xmlns:xlink="http://www.w3.org/1999/xlink"><path d="M955.733333 544H136.533333c-17.066667 0-32-14.933333-32-32s14.933333-32 32-32h819.2c17.066667 0 32 14.933333 32 32s-14.933333 32-32 32z" p-id="9853"></path><path d="M373.333333 857.6c-8.533333 0-17.066667-4.266667-23.466666-8.533333l-298.666667-298.666667c-21.333333-21.333333-21.333333-55.466667 0-74.666667l298.666667-298.666666c12.8-14.933333 34.133333-12.8 44.8 0s10.666667 32 0 42.666666L104.533333 512l290.133334 290.133333c12.8 12.8 12.8 32 0 44.8-4.266667 6.4-12.8 10.666667-21.333334 10.666667z" p-id="9854"></path></svg>