<?xml version="1.0" standalone="no"?><!DOCTYPE svg PUBLIC "-//W3C//DTD SVG 1.1//EN" "http://www.w3.org/Graphics/SVG/1.1/DTD/svg11.dtd"><svg t="1723953479508" class="icon" viewBox="0 0 1024 1024" version="1.1" xmlns="http://www.w3.org/2000/svg" p-id="10183" width="48" height="48" xmlns:xlink="http://www.w3.org/1999/xlink"><path d="M512 919.466667c-17.066667 0-32-14.933333-32-32V68.266667c0-17.066667 14.933333-32 32-32s32 14.933333 32 32v819.2c0 17.066667-14.933333 32-32 32z" p-id="10184"></path><path d="M512 987.733333c-14.933333 0-27.733333-6.4-38.4-14.933333l-298.666667-298.666667c-12.8-12.8-12.8-34.133333 0-46.933333s32-12.8 44.8-2.133333c0 0 2.133333 0 2.133334 2.133333L512 919.466667l290.133333-290.133334c12.8-12.8 32-12.8 44.8 0 12.8 12.8 12.8 32 0 44.8l-298.666666 298.666667c-8.533333 8.533333-23.466667 14.933333-36.266667 14.933333z" p-id="10185"></path></svg>