<?xml version="1.0" standalone="no"?><!DOCTYPE svg PUBLIC "-//W3C//DTD SVG 1.1//EN" "http://www.w3.org/Graphics/SVG/1.1/DTD/svg11.dtd"><svg t="1723953455733" class="icon" viewBox="0 0 1024 1024" version="1.1" xmlns="http://www.w3.org/2000/svg" p-id="9575" width="48" height="48" xmlns:xlink="http://www.w3.org/1999/xlink"><path d="M887.466667 544H68.266667c-17.066667 0-32-14.933333-32-32s14.933333-32 32-32h819.2c17.066667 0 32 14.933333 32 32s-14.933333 32-32 32z" p-id="9576"></path><path d="M650.666667 857.6c-8.533333 0-17.066667-4.266667-23.466667-8.533333-12.8-12.8-12.8-32 0-44.8L919.466667 512 629.333333 221.866667c-12.8-12.8-12.8-32-2.133333-44.8s32-12.8 44.8-2.133334c0 0 2.133333 0 2.133333 2.133334l298.666667 298.666666c21.333333 21.333333 21.333333 55.466667 0 74.666667l-298.666667 298.666667c-6.4 6.4-14.933333 8.533333-23.466666 8.533333z m275.2-337.066667z" p-id="9577"></path></svg>