<?xml version="1.0" standalone="no"?><!DOCTYPE svg PUBLIC "-//W3C//DTD SVG 1.1//EN" "http://www.w3.org/Graphics/SVG/1.1/DTD/svg11.dtd"><svg t="1723896736165" class="icon" viewBox="0 0 1024 1024" version="1.1" xmlns="http://www.w3.org/2000/svg" p-id="10273" width="48" height="48" xmlns:xlink="http://www.w3.org/1999/xlink"><path d="M200.04575469 32L32 200.04575469v76.23714656L276.28290125 32h-76.23714656zM407.17017219 32L32 407.17017219v76.22214562L483.39231781 32h-76.22214562zM614.29458969 32L32 614.29458969v76.22214656L690.51673625 32h-76.22214656zM821.40400625 32L32 821.40400625v76.2371475L897.64115375 32h-76.2371475zM992 71.24367875a48.0045 48.0045 0 0 0-10.50098437 7.81573312L71.27368156 989.25474219c-0.85508062 0.85508062-1.27512 1.86017437-2.04019125 2.74525781h75.51708L992 144.76557219zM992 275.63784125L275.63784125 992h76.23714656l640.12501219-640.12501219v-76.23714656zM992 482.76225875L482.76225875 992h76.2371475L992 558.99940625v-76.2371475zM992 689.88667719L689.88667719 992h76.22214562l225.89117719-225.89117719v-76.22214562z" fill="" p-id="10274"></path></svg>