<?xml version="1.0" standalone="no"?><!DOCTYPE svg PUBLIC "-//W3C//DTD SVG 1.1//EN" "http://www.w3.org/Graphics/SVG/1.1/DTD/svg11.dtd"><svg t="1723900721176" class="icon" viewBox="0 0 1024 1024" version="1.1" xmlns="http://www.w3.org/2000/svg" p-id="10576" width="48" height="48" xmlns:xlink="http://www.w3.org/1999/xlink"><path d="M342.532 560.551c-0.583 0.779-1.167 1.581-1.435 2.554l-45.292 171.657c-2.627 9.997 0.073 20.773 7.225 28.362 5.351 5.4 12.405 8.368 19.921 8.368 2.481 0 4.963-0.292 7.395-0.973l164.846-46.484c0.267 0 0.39 0.243 0.584 0.243 1.897 0 3.77-0.705 5.156-2.213l440.806-455.668C954.824 252.85 962 234.387 962 214.295c0-22.768-9.34-45.511-25.686-62.392l-41.62-43.103c-16.345-16.905-38.383-26.586-60.372-26.586-19.436 0-37.29 7.418-50.425 20.943L343.19 558.97c-0.462 0.438-0.34 1.07-0.657 1.581m556.054-338.789l-43.783 45.243-70.954-74.554L827 147.841c6.81-7.103 20.043-6.057 27.876 2.067l41.667 43.103c4.33 4.5 6.811 10.46 6.811 16.37-0.024 4.84-1.678 9.243-4.768 12.381m-477.68 345.94L738.97 238.839l71.027 74.603-317.48 328.232-71.612-73.97zM362.964 701.05l22.986-87.227 61.322 63.389-84.308 23.838zM926.51 402.346c-16.687 0-30.357 14.035-30.43 31.524v424.825c0 22.28-17.49 40.378-39.065 40.378H161.924c-21.551 0-39.113-18.097-39.113-40.378V165.28c0-22.305 17.562-40.403 39.113-40.403H609.59c16.784 0 30.406-14.108 30.406-31.451 0-17.319-13.622-31.427-30.406-31.427H157.28C104.761 62 62 106.173 62 160.514V863.51C62 917.85 104.762 962 157.278 962h704.336c52.564 0 95.278-44.149 95.278-98.49V433.652c-0.049-17.27-13.695-31.305-30.381-31.305" p-id="10577"></path></svg>