<?xml version="1.0" standalone="no"?><!DOCTYPE svg PUBLIC "-//W3C//DTD SVG 1.1//EN" "http://www.w3.org/Graphics/SVG/1.1/DTD/svg11.dtd"><svg t="1723955463461" class="icon" viewBox="0 0 1024 1024" version="1.1" xmlns="http://www.w3.org/2000/svg" p-id="9182" width="48" height="48" xmlns:xlink="http://www.w3.org/1999/xlink"><path d="M512 480.182857c-4.022857 0-8.045714-1.28-11.337143-3.84A215.881143 215.881143 0 0 0 365.714286 429.714286c-27.245714 0-53.76 4.937143-78.994286 14.628571-4.937143 1.828571-10.422857 1.645714-15.177143-0.914286a17.956571 17.956571 0 0 1-9.142857-12.068571c-4.205714-18.285714-6.4-37.485714-6.4-56.685714 0-141.348571 114.834286-256.182857 256-256.182857s256 115.017143 256 256.182857c0 19.2-2.194286 38.217143-6.4 56.685714-1.097143 5.12-4.571429 9.508571-9.142857 12.068571s-10.24 2.742857-15.177143 0.914286c-25.234286-9.691429-51.748571-14.628571-78.994286-14.628571-49.554286 0-96.182857 16.091429-134.948571 46.628571-3.291429 2.56-7.314286 3.84-11.337143 3.84z m-146.285714-87.222857c53.028571 0 103.314286 15.908571 146.285714 46.08a252.525714 252.525714 0 0 1 146.285714-46.08c24.32 0 48.274286 3.474286 71.314286 10.057143 1.28-9.325714 1.828571-18.834286 1.828571-28.342857 0-121.234286-98.377143-219.611429-219.428571-219.611429s-219.428571 98.56-219.428571 219.611429c0 9.508571 0.548571 19.017143 1.828571 28.342857 23.04-6.582857 46.994286-10.057143 71.314286-10.057143z" p-id="9183"></path><path d="M365.714286 905.508571c-141.165714 0-256-115.017143-256-256.182857 0-105.142857 65.828571-201.325714 163.84-239.177143 29.44-11.337143 60.525714-17.188571 92.16-17.188571 57.782857 0 112.274286 18.834286 157.622857 54.491429 4.388571 3.474286 6.948571 8.777143 6.948571 14.445714s-2.56 10.971429-6.948571 14.445714c-39.862857 31.085714-67.84 75.337143-78.994286 124.525714-3.657143 15.725714-5.485714 32-5.485714 48.457143 0 68.022857 30.72 131.108571 84.48 172.982857 4.388571 3.474286 6.948571 8.777143 6.948571 14.445715 0 5.668571-2.56 10.971429-6.948571 14.445714A253.513143 253.513143 0 0 1 365.714286 905.508571z m0-475.977142c-27.245714 0-53.76 4.937143-78.994286 14.628571C201.325714 477.257143 146.285714 557.714286 146.285714 649.325714c0 121.234286 98.377143 219.611429 219.428572 219.611429 42.057143 0 81.92-11.52 116.662857-33.645714-51.2-48.091429-80.091429-114.651429-80.091429-185.965715 0-19.2 2.194286-38.217143 6.4-56.685714 11.154286-49.554286 36.937143-94.72 73.691429-129.462857-34.742857-21.942857-74.605714-33.645714-116.662857-33.645714z" p-id="9184"></path><path d="M658.285714 905.508571c-57.782857 0-112.274286-18.834286-157.622857-54.491428C438.125714 802.377143 402.285714 728.685714 402.285714 649.325714a256.237714 256.237714 0 0 1 98.56-201.874285c45.165714-35.657143 99.657143-54.491429 157.622857-54.491429 31.634286 0 62.72 5.851429 92.16 17.188571C848.457143 448 914.285714 544.182857 914.285714 649.325714c0 141.348571-114.834286 256.182857-256 256.182857z m0-475.977142c-49.554286 0-96.182857 16.091429-134.948571 46.628571-39.862857 31.085714-68.022857 75.337143-78.994286 124.525714-3.657143 15.725714-5.485714 32-5.485714 48.457143 0 68.022857 30.72 131.108571 84.48 172.982857 38.765714 30.537143 85.394286 46.628571 134.948571 46.628572 121.051429 0 219.428571-98.56 219.428572-219.611429 0-91.611429-55.04-172.068571-140.434286-204.982857-25.234286-9.691429-51.748571-14.628571-78.994286-14.628571z" p-id="9185"></path></svg>