<?xml version="1.0" standalone="no"?><!DOCTYPE svg PUBLIC "-//W3C//DTD SVG 1.1//EN" "http://www.w3.org/Graphics/SVG/1.1/DTD/svg11.dtd"><svg t="1723955489002" class="icon" viewBox="0 0 1308 1024" version="1.1" xmlns="http://www.w3.org/2000/svg" p-id="10390" width="61.3125" height="48" xmlns:xlink="http://www.w3.org/1999/xlink"><path d="M603.022222 818.801778h56.888889v168.732444a28.444444 28.444444 0 1 1-56.888889 0v-168.732444z m0-284.785778h56.888889v219.079111h-56.888889v-219.022222z m28.444445-533.048889a28.444444 28.444444 0 0 1 28.444444 28.444445v146.830222h-56.888889V29.468444a28.444444 28.444444 0 0 1 28.444445-28.444444z m-28.444445 240.981333h56.888889v219.022223h-56.888889v-219.022223zM444.302222 1.024c21.504 0 35.84 14.563556 35.84 36.465778v949.020444c0 14.563556-14.336 36.465778-35.84 36.465778H34.702222c-28.672 0-43.064889-29.184-28.672-51.086222L415.516444 22.926222c7.224889-14.620444 21.617778-21.902222 28.728889-21.902222zM408.291556 205.368889L92.16 949.987556h316.131556V205.425778zM815.217778 1.024c14.392889 0 28.785778 7.281778 35.953778 21.902222l409.543111 948.963556c7.168 21.902222-7.224889 51.086222-35.953778 51.086222h-409.543111c-21.504 0-35.896889-14.563556-35.896889-36.465778V37.489778c0-21.902222 21.560889-36.465778 35.896889-36.465778z" p-id="10391"></path></svg>