<?xml version="1.0" standalone="no"?><!DOCTYPE svg PUBLIC "-//W3C//DTD SVG 1.1//EN" "http://www.w3.org/Graphics/SVG/1.1/DTD/svg11.dtd"><svg t="1723900782476" class="icon" viewBox="0 0 1024 1024" version="1.1" xmlns="http://www.w3.org/2000/svg" p-id="12985" width="48" height="48" xmlns:xlink="http://www.w3.org/1999/xlink"><path d="M128 64c-35.345655 0-64 28.654345-64 64v768c0 35.345655 28.654345 64 64 64h768c35.345655 0 64-28.654345 64-64v-768c0-35.345655-28.654345-64-64-64h-768z m0-64h768C966.692487 0 1024 57.307513 1024 128v768C1024 966.692487 966.692487 1024 896 1024h-768C57.307513 1024 0 966.692487 0 896v-768C0 57.307513 57.307513 0 128 0z m346.666372 720.000294l-37.333627-100.000073H300.443954l-37.332451 99.998896h-87.11062l136.887614-399.999117h112.000882l136.888791 400.000294h-87.110621z m-111.999705-287.500358l-37.333628 112.499935h87.110621l-37.332451-112.498758h-12.444542zM673.777876 720.001471c-59.500285 0-111.952625-43.457618-111.952625-100.000073 0-57.128607 47.175798-87.500211 124.397167-87.500212h87.110621v-24.999724c0-29.296993-17.694014-49.999448-49.776993-49.999448-31.79108 0-58.13966 14.354832-62.222713 37.499586h-74.667255c3.208533-60.937416 54.056607-112.499936 136.889968-112.499936 80.207448 0 124.444248 49.217913 124.444248 112.498759V720.001471H773.331862v-49.999448c-17.499807 33.397701-60.472497 49.999448-99.555163 49.999448z m17.3056-59.082446c37.040552 0 67.666391-24.317057 67.666391-58.30091v-22.851678l-65.916175 4.101885c-31.79108 2.34343-49.875862 16.699439-49.875862 38.964965 0 23.43783 19.250023 38.085738 48.125646 38.085738z" p-id="12986"></path></svg>