<?xml version="1.0" standalone="no"?><!DOCTYPE svg PUBLIC "-//W3C//DTD SVG 1.1//EN" "http://www.w3.org/Graphics/SVG/1.1/DTD/svg11.dtd"><svg t="1723954303932" class="icon" viewBox="0 0 1024 1024" version="1.1" xmlns="http://www.w3.org/2000/svg" p-id="2524" xmlns:xlink="http://www.w3.org/1999/xlink" width="48" height="48"><path d="M0 275.413333l237.909333 117.76L0 509.354667l240.64 119.082666L0 745.941333 389.290667 938.666667l389.290666-192.725334-240.64-117.504 240.64-119.082666-237.909333-116.181334 237.909333-117.76L389.290667 85.333333 0 275.413333z m93.525333 470.784l193.792-94.634666 101.973334 50.517333 101.973333-50.474667 193.792 94.592-295.765333 146.432-295.765334-146.432z m295.765334-324.096L93.525333 275.669333l295.765334-144.426666 295.765333 144.426666-295.765333 146.432z m497.962666 384.768l-136.704-162.901333 25.002667-30.165333 93.994667 111.957333V214.485333h35.456V725.76l93.994666-111.957333 25.002667 30.165333-136.746667 162.901333z" p-id="2525"></path></svg>