<?xml version="1.0" standalone="no"?><!DOCTYPE svg PUBLIC "-//W3C//DTD SVG 1.1//EN" "http://www.w3.org/Graphics/SVG/1.1/DTD/svg11.dtd"><svg t="1723954286517" class="icon" viewBox="0 0 1024 1024" version="1.1" xmlns="http://www.w3.org/2000/svg" p-id="1483" width="48" height="48" xmlns:xlink="http://www.w3.org/1999/xlink"><path d="M0 275.413333l239.104 117.76L0 509.354667l241.834667 119.082666L0 745.941333 391.253333 938.666667l391.338667-192.725334-241.834667-117.504 241.834667-119.082666-239.146667-116.181334 239.146667-117.76L391.253333 85.333333 0 275.413333z m93.994667 470.784l194.773333-94.634666 102.528 50.517333 102.485333-50.474667 194.816 94.592-297.301333 146.432-297.301333-146.432zM391.253333 422.101333L93.994667 275.669333 391.253333 131.242667l297.301334 144.426666L391.253333 422.101333z m495.274667-207.616l137.386667 162.901334-25.130667 30.165333-94.421333-111.957333V806.826667h-35.669334V295.594667l-94.464 111.957333-25.173333-30.165333 137.472-162.901334z" p-id="1484"></path></svg>