<?xml version="1.0" standalone="no"?><!DOCTYPE svg PUBLIC "-//W3C//DTD SVG 1.1//EN" "http://www.w3.org/Graphics/SVG/1.1/DTD/svg11.dtd"><svg t="1723901127285" class="icon" viewBox="0 0 1024 1024" version="1.1" xmlns="http://www.w3.org/2000/svg" p-id="19333" width="48" height="48" xmlns:xlink="http://www.w3.org/1999/xlink"><path d="M822.2 825.8H201.8c-37.4 0-68-30.6-68-68v-0.6c0-37.4 30.6-68 68-68h620.6c37.4 0 68 30.6 68 68v0.6c-0.2 37.4-30.8 68-68.2 68z" fill="#596774" p-id="19334"></path><path d="M485.6 757.6m-87.8 0a87.8 87.8 0 1 0 175.6 0 87.8 87.8 0 1 0-175.6 0Z" fill="#FFFFFF" p-id="19335"></path><path d="M822.2 580.4H201.8c-37.4 0-68-30.6-68-68v-0.6c0-37.4 30.6-68 68-68h620.6c37.4 0 68 30.6 68 68v0.6c-0.2 37.4-30.8 68-68.2 68z" fill="#596774" p-id="19336"></path><path d="M736.2 512m-87.8 0a87.8 87.8 0 1 0 175.6 0 87.8 87.8 0 1 0-175.6 0Z" fill="#FFFFFF" p-id="19337"></path><path d="M822.2 334.8H201.8c-37.4 0-68-30.6-68-68v-0.6c0-37.4 30.6-68 68-68h620.6c37.4 0 68 30.6 68 68v0.6c-0.2 37.4-30.8 68-68.2 68z" fill="#596774" p-id="19338"></path><path d="M299 266.4m-87.8 0a87.8 87.8 0 1 0 175.6 0 87.8 87.8 0 1 0-175.6 0Z" fill="#FFFFFF" p-id="19339"></path><path d="M736.2 512m-53.4 0a53.4 53.4 0 1 0 106.8 0 53.4 53.4 0 1 0-106.8 0Z" fill="#596774" p-id="19340"></path><path d="M485.6 757.6m-53.4 0a53.4 53.4 0 1 0 106.8 0 53.4 53.4 0 1 0-106.8 0Z" fill="#596774" p-id="19341"></path><path d="M299 266.4m-53.4 0a53.4 53.4 0 1 0 106.8 0 53.4 53.4 0 1 0-106.8 0Z" p-id="19342"></path></svg>