<?xml version="1.0" standalone="no"?><!DOCTYPE svg PUBLIC "-//W3C//DTD SVG 1.1//EN" "http://www.w3.org/Graphics/SVG/1.1/DTD/svg11.dtd"><svg t="1723900858331" class="icon" viewBox="0 0 1024 1024" version="1.1" xmlns="http://www.w3.org/2000/svg" p-id="15657" width="48" height="48" xmlns:xlink="http://www.w3.org/1999/xlink"><path d="M946.56 909.841067L696.1408 102.4768a21.341867 21.341867 0 0 0-22.493867-14.916267 21.3504 21.3504 0 0 0-22.493866 14.916267l-57.975467 186.897067-57.966933-186.897067a21.367467 21.367467 0 0 0-22.485334-14.916267 21.358933 21.358933 0 0 0-22.493866 14.916267L434.432 282.368l-55.799467-179.8912a21.333333 21.333333 0 0 0-22.485333-14.916267 21.333333 21.333333 0 0 0-22.485333 14.916267l-250.453334 807.364267a21.333333 21.333333 0 1 0 40.7552 12.629333L189.090133 712.533333H234.666667a21.333333 21.333333 0 1 0 0-42.666666h-32.349867l153.821867-495.872 54.4 175.394133c0.452267 1.467733 1.1008 2.816 1.8176 4.104533L239.786667 909.841067a21.333333 21.333333 0 1 0 40.7552 12.629333L345.668267 712.533333H396.8a21.333333 21.333333 0 1 0 0-42.666666h-37.896533l153.813333-495.863467 54.4 175.3856c0.989867 3.208533 2.705067 5.9904 4.872533 8.285867l-171.281066 552.1664a21.333333 21.333333 0 1 0 40.7552 12.629333L506.589867 712.533333h334.097066l65.117867 209.9456a21.341867 21.341867 0 1 0 40.7552-12.637866zM519.825067 669.866667l153.821866-495.880534L827.460267 669.866667H519.825067z" p-id="15658"></path></svg>