<?xml version="1.0" standalone="no"?><!DOCTYPE svg PUBLIC "-//W3C//DTD SVG 1.1//EN" "http://www.w3.org/Graphics/SVG/1.1/DTD/svg11.dtd"><svg t="1723953764309" class="icon" viewBox="0 0 1024 1024" version="1.1" xmlns="http://www.w3.org/2000/svg" p-id="2223" width="48" height="48" xmlns:xlink="http://www.w3.org/1999/xlink"><path d="M1023.744 979.029333c0 24.746667-20.053333 44.8-44.714667 44.8H45.738667a44.714667 44.714667 0 1 1 0-89.514666h933.290666c24.746667 0 44.714667 20.053333 44.714667 44.714666zM512.256 852.906667a44.714667 44.714667 0 0 1-44.629333-44.8V45.226667a44.714667 44.714667 0 0 1 89.344 0v762.88c0 24.746667-19.968 44.8-44.714667 44.8z" p-id="2224"></path><path d="M543.914667 839.509333a44.629333 44.629333 0 0 1-63.146667 0l-335.36-335.786666a44.629333 44.629333 0 1 1 63.146667-63.232l335.36 335.701333a44.8 44.8 0 0 1 0 63.317333z" p-id="2225"></path><path d="M480.682667 839.509333a44.8 44.8 0 0 1 0-63.317333l335.36-335.701333a44.8 44.8 0 0 1 63.146666 63.232l-335.36 335.786666a44.629333 44.629333 0 0 1-63.146666 0z" p-id="2226"></path></svg>